<?xml version="1.0" encoding="utf-8"?>
<!-- Generator: Adobe Illustrator 25.2.3, SVG Export Plug-In . SVG Version: 6.00 Build 0)  -->
<svg version="1.1" id="Layer_1" xmlns="http://www.w3.org/2000/svg" xmlns:xlink="http://www.w3.org/1999/xlink" x="0px" y="0px"
	 viewBox="0 0 288.9 131.6" style="enable-background:new 0 0 288.9 131.6;" xml:space="preserve">
<style type="text/css">
	.st0{fill:#000F5F;}
</style>
<g>
	<g>
		<path class="st0" d="M27.9,0.5h17c2.3,0,4.1,0.4,5.6,1.1C51.9,2.3,53,3.5,53.7,5c0.7,1.5,1.1,3.5,1.1,5.9v3.6c0,2.4-0.3,4.3-1,5.8
			c-0.7,1.5-1.7,2.6-3.1,3.4c-1.4,0.7-3.1,1.1-5.2,1.1h-0.1c-1.4,0-2.6-0.1-3.5-0.4s-1.7-0.7-2.2-1.2c-0.5-0.5-1-1.1-1.4-1.9
			l-0.7,0.2c0.2,1,0.4,1.8,0.4,2.4s0.1,1.6,0.1,2.9v7h-10V0.5z M38.2,15.6c0.2,0.4,0.6,0.8,1.1,1c0.5,0.2,1.2,0.3,2.1,0.3
			c1,0,1.8-0.1,2.4-0.4c0.5-0.3,0.9-0.7,1.1-1.2c0.2-0.6,0.3-1.3,0.3-2.3v-0.3c0-0.9-0.1-1.7-0.3-2.2s-0.6-0.9-1.2-1.2
			c-0.6-0.3-1.4-0.4-2.4-0.4h-3.5v5C37.8,14.6,37.9,15.2,38.2,15.6z"/>
		<path class="st0" d="M63.5,0.5h13.7l10,33.2H76.8l-0.6-2.6c-0.2-1-0.6-1.7-1-2.3c-0.5-0.6-1.1-1-1.8-1.3c-0.8-0.3-1.7-0.4-2.9-0.4
			s-2.1,0.1-2.9,0.4c-0.8,0.3-1.4,0.7-1.8,1.3c-0.5,0.6-0.8,1.4-1,2.3l-0.6,2.6H53.5L63.5,0.5z M69.4,20.5c0.7-0.4,1.5-0.6,2.4-0.6
			c0.4,0,0.8,0,1.3,0.1c-0.6-2.3-1.3-5.7-2.2-10.1H70c-0.5,2.4-0.9,4.4-1.3,6c-0.4,1.6-0.7,2.8-1,3.7c-0.3,1-0.7,1.9-1.1,2.8
			l0.7,0.3C68.1,21.6,68.7,20.9,69.4,20.5z"/>
		<path class="st0" d="M90.1,0.5h16.3c0.2,2.2,0.4,4.3,0.7,6.3c0.3,2,0.6,4.5,1,7.5c0.5,3.4,0.9,6.5,1.2,9.3h0.9
			c0.4-3.2,0.8-6.2,1.2-9.1c0.3-2.3,0.6-4.7,0.9-7.1c0.3-2.4,0.6-4.7,0.8-7h16.3v33.2h-9.7v-5.9c0-5.8,0.2-11.9,0.5-18.3l-0.8,0
			c-0.3,1.9-0.6,3.9-0.9,6s-0.7,4.1-1,5.9c-0.3,2.1-0.7,4.2-1,6.3s-0.6,4.1-0.9,5.9H104c-0.2-1.7-0.5-3.6-0.9-5.8
			c-0.3-2.1-0.7-4.3-1-6.3c-0.7-4.1-1.3-8.1-1.9-12.1l-0.9,0c0.3,6.3,0.5,12.4,0.5,18.3v5.9h-9.7V0.5z"/>
		<path class="st0" d="M142.1,0.5h13.7l10,33.2h-10.5l-0.6-2.6c-0.2-1-0.6-1.7-1-2.3c-0.5-0.6-1.1-1-1.8-1.3
			c-0.8-0.3-1.7-0.4-2.9-0.4c-1.2,0-2.1,0.1-2.9,0.4c-0.8,0.3-1.4,0.7-1.8,1.3c-0.5,0.6-0.8,1.4-1,2.3l-0.6,2.6h-10.5L142.1,0.5z
			 M147.9,20.5c0.7-0.4,1.5-0.6,2.4-0.6c0.4,0,0.8,0,1.3,0.1c-0.6-2.3-1.3-5.7-2.2-10.1h-0.9c-0.5,2.4-0.9,4.4-1.3,6
			c-0.4,1.6-0.7,2.8-1,3.7c-0.3,1-0.7,1.9-1.1,2.8l0.7,0.3C146.6,21.6,147.2,20.9,147.9,20.5z"/>
		<path class="st0" d="M173.4,33.2c-2-0.7-3.4-1.7-4.2-3.1c-0.8-1.3-1.2-3-1.2-5c0-1.1,0.1-2.3,0.3-3.6l9.2-0.4
			c-0.1,0.6-0.2,1.2-0.2,1.7c0,0.8,0.1,1.4,0.4,1.9c0.2,0.5,0.6,0.8,1.2,1.1s1.3,0.3,2.3,0.3c0.9,0,1.7-0.1,2.2-0.4
			c0.5-0.2,0.9-0.6,1.1-1.1c0.2-0.5,0.3-1.1,0.3-1.9v-0.4c0-0.9-0.1-1.5-0.4-2c-0.2-0.5-0.6-0.8-1.2-1c-0.6-0.2-1.4-0.3-2.4-0.3
			h-2.5v-4.9h2.6c1,0,1.7-0.1,2.2-0.3c0.5-0.2,0.9-0.5,1.1-1s0.3-1.1,0.3-1.9v-0.2c0-0.6-0.1-1.2-0.3-1.6c-0.2-0.4-0.5-0.7-1-0.9
			c-0.5-0.2-1.2-0.3-2.2-0.3c-0.9,0-1.6,0.1-2.1,0.3s-1,0.5-1.3,0.9s-0.5,1-0.5,1.8c0,0.4,0,0.9,0.1,1.3l-9.1,0.4
			c-0.3-1.3-0.4-2.5-0.4-3.8c0-1.9,0.4-3.5,1.2-4.9c0.8-1.3,2.2-2.3,4.1-3s4.6-1.1,7.9-1.1c4.2,0,7.4,0.7,9.6,2.1
			c2.2,1.4,3.3,3.8,3.3,7v0.3c0,1.3-0.2,2.5-0.6,3.4s-1,1.7-1.7,2.3c-0.8,0.6-1.8,1.1-3,1.5v0.8c1.3,0.3,2.3,0.7,3.1,1.2
			s1.5,1.3,1.9,2.3c0.4,1,0.7,2.2,0.7,3.7v0.9c0,2.3-0.5,4-1.6,5.3c-1.1,1.3-2.5,2.2-4.4,2.7c-1.9,0.5-4.2,0.8-7,0.8
			C178.1,34.3,175.4,34,173.4,33.2z"/>
		<path class="st0" d="M205.7,0.5h13.7l10,33.2h-10.5l-0.6-2.6c-0.2-1-0.6-1.7-1-2.3c-0.5-0.6-1.1-1-1.8-1.3
			c-0.8-0.3-1.7-0.4-2.9-0.4s-2.1,0.1-2.9,0.4c-0.8,0.3-1.4,0.7-1.8,1.3s-0.8,1.4-1,2.3l-0.6,2.6h-10.5L205.7,0.5z M211.6,20.5
			c0.7-0.4,1.5-0.6,2.4-0.6c0.4,0,0.8,0,1.3,0.1c-0.6-2.3-1.3-5.7-2.2-10.1h-0.9c-0.5,2.4-0.9,4.4-1.3,6s-0.7,2.8-1,3.7
			c-0.3,1-0.7,1.9-1.1,2.8l0.7,0.3C210.2,21.6,210.9,20.9,211.6,20.5z"/>
		<path class="st0" d="M232.3,0.5h10V11c0,0.9-0.1,1.7-0.2,2.4c-0.1,0.7-0.3,1.5-0.6,2.3l0.7,0.3c0.7-1.3,1.6-2.2,2.7-2.9
			c1.1-0.7,2.5-1,4.1-1c0.7,0,1.4,0.1,2.1,0.2V0.5h10v33.2h-10v-9.7c0-0.9-0.1-1.6-0.4-2.2c-0.3-0.6-0.8-1-1.4-1.3
			c-0.6-0.3-1.5-0.4-2.6-0.4c-1.1,0-1.9,0.1-2.6,0.4c-0.7,0.3-1.1,0.7-1.4,1.3c-0.3,0.6-0.4,1.3-0.4,2.2v9.7h-10V0.5z"/>
	</g>
	<g>
		<path class="st0" d="M10,49.2h13.7l10,33.2H23.2l-0.6-2.6c-0.2-1-0.6-1.7-1-2.3c-0.5-0.6-1.1-1-1.8-1.3c-0.8-0.3-1.7-0.4-2.9-0.4
			s-2.1,0.1-2.9,0.4c-0.8,0.3-1.4,0.7-1.8,1.3c-0.5,0.6-0.8,1.4-1,2.3l-0.6,2.6H0L10,49.2z M15.8,69.1c0.7-0.4,1.5-0.6,2.4-0.6
			c0.4,0,0.8,0,1.3,0.1c-0.6-2.3-1.3-5.7-2.2-10.1h-0.9c-0.5,2.4-0.9,4.4-1.3,6c-0.4,1.6-0.7,2.8-1,3.7c-0.3,1-0.7,1.9-1.1,2.8
			l0.7,0.3C14.5,70.2,15.2,69.6,15.8,69.1z"/>
		<path class="st0" d="M56.3,82.4v-5.9c0-2.9,0.1-5.7,0.2-8.5c0.1-2.8,0.4-6,0.6-9.8l-0.8,0c-0.4,2.1-0.8,4.3-1.2,6.5
			c-0.4,2.2-0.9,4.3-1.3,6.3c-0.5,2.3-0.9,4.4-1.3,6.1c-0.3,1.8-0.7,3.5-0.9,5.2h-15V49.2h9.7v5.9c0,2.9-0.1,5.7-0.2,8.5
			c-0.1,2.8-0.4,6-0.6,9.8l0.8,0c0.3-1.7,0.6-3.5,0.9-5.5c0.4-2,0.7-3.8,1-5.6c0.6-3,1-5.4,1.4-7.3c0.3-1.9,0.6-3.9,0.9-5.8H66v33.2
			H56.3z M45.3,46.7c-1.4-0.4-2.4-1-2.9-1.9c-0.5-0.8-0.8-2-0.8-3.4h7.9c0,0.8,0.2,1.3,0.5,1.6c0.3,0.3,0.7,0.5,1.3,0.5
			c0.6,0,1.1-0.2,1.4-0.5c0.3-0.3,0.5-0.9,0.5-1.6h7.8c0,1.4-0.3,2.5-0.8,3.4c-0.6,0.8-1.5,1.4-2.9,1.9c-1.4,0.4-3.4,0.6-5.9,0.6
			S46.7,47.1,45.3,46.7z"/>
		<path class="st0" d="M70.2,49.2h10v11.4h6.5c2.4,0,4.4,0.3,6,1c1.6,0.7,2.8,1.8,3.6,3.3c0.8,1.5,1.2,3.5,1.2,6.1v1.2
			c0,2.5-0.4,4.5-1.2,6c-0.8,1.5-2,2.6-3.6,3.3c-1.6,0.7-3.6,1-6,1H70.2V49.2z M86.3,73.6c0.4-0.2,0.8-0.4,1-0.8
			c0.2-0.4,0.3-0.9,0.3-1.5v-1c0-0.9-0.2-1.6-0.7-2c-0.5-0.4-1.2-0.6-2.2-0.6h-4.5v6.2h4.3C85.3,73.9,85.9,73.8,86.3,73.6z
			 M100.9,49.2h10v33.2h-10V49.2z"/>
		<path class="st0" d="M146.1,82.4h-3.3l-5.2-13h-0.9v13h-10V49.2h10v12h0.9l2.5-6c0.7-1.7,1.5-3,2.3-3.9s1.9-1.6,3-1.9
			s2.6-0.6,4.2-0.6c1.1,0,2.3,0.1,3.6,0.2v9.1c-0.9-0.1-1.5-0.1-2-0.1c-0.9,0-1.5,0.1-2.1,0.2c-0.5,0.2-1,0.5-1.4,0.9
			s-0.7,1-1.1,1.8l-1.5,3.5l4.5,9.5h5.6v13.6h-9.3V82.4z"/>
		<path class="st0" d="M164.8,73.4l-10-24.3h10.8c0.3,1,0.7,2.2,1.1,3.6c0.4,1.3,0.8,2.6,1.2,3.9c1,3.3,1.8,5.8,2.3,7.4h0.9
			c0.4-1.7,0.9-4.1,1.6-7.4c0.3-1.2,0.5-2.5,0.8-3.8c0.3-1.3,0.5-2.5,0.8-3.6h10.5l-10,24.3v9h-10V73.4z"/>
		<g>
			<path class="st0" d="M158.5,70h22.6v7.6h-22.6V70z"/>
		</g>
		<path class="st0" d="M195.6,58.4h-8.9v-9.3h27.8v9.3h-8.9v24h-10V58.4z"/>
		<path class="st0" d="M226.2,58.4h-8.9v-9.3h27.8v9.3h-8.9v24h-10V58.4z"/>
		<path class="st0" d="M248.3,49.2h10v11.4h6.5c2.4,0,4.4,0.3,6,1c1.6,0.7,2.8,1.8,3.6,3.3c0.8,1.5,1.2,3.5,1.2,6.1v1.2
			c0,2.5-0.4,4.5-1.2,6c-0.8,1.5-2,2.6-3.6,3.3c-1.6,0.7-3.6,1-6,1h-16.5V49.2z M264.4,73.6c0.4-0.2,0.8-0.4,1-0.8
			c0.2-0.4,0.3-0.9,0.3-1.5v-1c0-0.9-0.2-1.6-0.7-2s-1.2-0.6-2.2-0.6h-4.5v6.2h4.3C263.3,73.9,263.9,73.8,264.4,73.6z M278.9,49.2
			h10v33.2h-10V49.2z"/>
	</g>
	<g>
		<path class="st0" d="M36.1,97.8h23.4v9H46v4.2h8.2c2,0,3.7,0.3,5,0.9c1.3,0.6,2.4,1.6,3.1,3c0.7,1.4,1.1,3.3,1.1,5.6v0.9
			c0,2.3-0.3,4.2-1,5.6c-0.7,1.4-1.7,2.4-3.1,3.1c-1.3,0.6-3,0.9-5,0.9H36.1V97.8z M52.3,122.7c0.4-0.2,0.7-0.4,0.9-0.8
			s0.3-0.9,0.3-1.5v-0.2c0-0.9-0.2-1.6-0.6-2c-0.4-0.4-1.1-0.6-2-0.6H46v5.4h4.6C51.3,123,51.8,122.9,52.3,122.7z"/>
		<path class="st0" d="M72.7,130c-2.2-1.1-3.8-2.6-4.9-4.6c-1.1-2-1.6-4.5-1.6-7.3v-7.2c0-2.9,0.5-5.3,1.6-7.3
			c1.1-2,2.7-3.6,4.9-4.6c2.2-1.1,4.9-1.6,8.1-1.6s5.9,0.5,8.1,1.6c2.2,1.1,3.8,2.6,4.9,4.6c1.1,2,1.6,4.5,1.6,7.3v7.2
			c0,2.9-0.6,5.3-1.6,7.3c-1.1,2-2.7,3.6-4.9,4.6c-2.2,1.1-4.9,1.6-8.2,1.6C77.6,131.6,74.9,131.1,72.7,130z M84.3,121.9
			c0.7-0.8,1.1-2.1,1.1-3.8v-7.2c0-1.8-0.4-3.1-1.1-3.8c-0.7-0.8-1.9-1.2-3.4-1.2s-2.6,0.4-3.4,1.2c-0.7,0.8-1.1,2.1-1.1,3.8v7.2
			c0,1.8,0.4,3,1.1,3.8c0.7,0.8,1.9,1.2,3.4,1.2S83.5,122.7,84.3,121.9z"/>
		<path class="st0" d="M119.2,106.4h-6.4l-0.2,14c0,2.8-0.4,4.9-1.1,6.5c-0.7,1.6-1.8,2.7-3.2,3.4c-1.5,0.7-3.4,1-5.8,1
			c-1.4,0-2.7-0.1-4-0.2v-8.5c0.5,0,0.9,0.1,1.4,0.1c0.6,0,1.2-0.1,1.6-0.3c0.4-0.2,0.7-0.5,1-1s0.4-1.1,0.4-2l0.3-21.6h26.2V131
			h-10V106.4z"/>
		<path class="st0" d="M136.5,128.2c-2.4-2.3-3.7-5.6-3.7-10.1v-7.3c0-4.4,1.2-7.8,3.7-10.1c2.5-2.3,6.1-3.5,11-3.5
			c3.3,0,6.1,0.5,8.3,1.5c2.2,1,3.8,2.4,4.7,4.1c1,1.7,1.5,3.7,1.5,5.8c0,0.5,0,1-0.1,1.6s-0.1,1-0.2,1.3l-10.1,0.4
			c0.2-0.9,0.2-1.7,0.2-2.5c0-0.9-0.2-1.6-0.5-2.1s-0.8-0.9-1.4-1.2s-1.5-0.4-2.5-0.4c-1.5,0-2.7,0.4-3.4,1.1
			c-0.7,0.7-1.1,1.9-1.1,3.5v7.6c0,1.2,0.2,2.1,0.5,2.9c0.3,0.7,0.8,1.3,1.4,1.6c0.6,0.3,1.5,0.5,2.5,0.5c1.4,0,2.5-0.3,3.2-1
			c0.7-0.7,1.1-1.7,1.1-3.1V117H162v2c0,4.1-1.2,7.2-3.7,9.3c-2.4,2.1-6.1,3.2-10.9,3.2C142.6,131.6,138.9,130.4,136.5,128.2z"/>
		<path class="st0" d="M165.6,97.8h10v11.4h6.5c2.4,0,4.4,0.3,6,1c1.6,0.7,2.8,1.8,3.6,3.3c0.8,1.5,1.2,3.5,1.2,6.1v1.2
			c0,2.5-0.4,4.5-1.2,6c-0.8,1.5-2,2.6-3.6,3.3c-1.6,0.7-3.6,1-6,1h-16.5V97.8z M181.7,122.2c0.4-0.2,0.8-0.4,1-0.8
			c0.2-0.4,0.3-0.9,0.3-1.5v-1c0-0.9-0.2-1.6-0.7-2s-1.2-0.6-2.2-0.6h-4.5v6.2h4.3C180.7,122.5,181.3,122.4,181.7,122.2z
			 M196.3,97.8h10V131h-10V97.8z"/>
		<path class="st0" d="M210.6,97.8h10v10.5c0,0.9-0.1,1.7-0.2,2.4c-0.1,0.7-0.3,1.5-0.6,2.3l0.7,0.3c0.7-1.3,1.6-2.2,2.7-2.9
			c1.1-0.7,2.5-1,4.1-1c0.7,0,1.4,0.1,2.1,0.2V97.8h10V131h-10v-9.7c0-0.9-0.1-1.6-0.4-2.2c-0.3-0.6-0.8-1-1.4-1.3
			c-0.6-0.3-1.5-0.4-2.6-0.4c-1.1,0-1.9,0.1-2.6,0.4c-0.7,0.3-1.1,0.7-1.4,1.3c-0.3,0.6-0.4,1.3-0.4,2.2v9.7h-10V97.8z"/>
		<path class="st0" d="M242.7,97.8h10.1l-1.3,22H244L242.7,97.8z M242.8,122.3h9.9v8.7h-9.9V122.3z"/>
	</g>
</g>
</svg>
