<?xml version="1.0" encoding="utf-8"?>
<!-- Generator: Adobe Illustrator 25.2.3, SVG Export Plug-In . SVG Version: 6.00 Build 0)  -->
<svg version="1.1" id="Layer_1" xmlns="http://www.w3.org/2000/svg" xmlns:xlink="http://www.w3.org/1999/xlink" x="0px" y="0px"
	 viewBox="0 0 300 142" style="enable-background:new 0 0 300 142;" xml:space="preserve">
<style type="text/css">
	.st0{fill-rule:evenodd;clip-rule:evenodd;fill:#591C07;}
	.st1{fill-rule:evenodd;clip-rule:evenodd;fill:#ECAB00;}
	.st2{fill-rule:evenodd;clip-rule:evenodd;fill:#FFFFFF;}
	.st3{fill-rule:evenodd;clip-rule:evenodd;fill:#EE3437;}
</style>
<g>
	<path class="st0" d="M250.6,34.9c-0.9,0.4-1.6,0.9-1.9,1.5l-3.5,6.5l0.7,0.7L250.6,34.9L250.6,34.9z M168.5,14.5
		c-3.7,2.8-5.5,7.6-5,12.4c0.1,0.6,0.5,4.7,2.6,7.7c0.2,0.3,0.8,1.2,1.6,2.2c0.4,0.5,0.8,1,1.3,1.4c0.3,0,0.5,0,0.8,0
		c1.9,0,3.7,0.6,5.1,1.7c0.1-0.1,0.2-0.2,0.2-0.3c0.6-0.6,1.3-2.1,2.1-3c-1.9-1.2-3.5-2.8-4.5-4.8c-0.3-0.3-0.5-0.6-0.8-0.9
		c-0.8-1-1.4-2-1.6-2.2c-2.1-3-2.6-7.2-2.6-7.7C167.4,18.8,167.7,16.6,168.5,14.5L168.5,14.5z M154.6,45.1c-2.2,0.4-3.8,2.1-4.1,4.3
		l-1.3,12.8l3.1,4.8L154.6,45.1L154.6,45.1z M114.2,50.7c-0.1,0.1-0.2,0.1-0.3,0.2c-1.2,0.7-2.3,1.8-3,3.2c-0.8,1.3-1,3.1-1.1,4.5
		l-0.8,9.3l3.2,5.5l1.8-20.6C114,52.2,114.1,51.4,114.2,50.7L114.2,50.7z M4.3,40.2c-0.7,0.4-1.4,0.8-2,1.4C0.8,43.1,0,45.2,0,47.3
		c0,0.8,0.1,1.6,0.3,2.4l3.3,11.8c0.6,2.3,3,3.2,5.4,2.9l23.5-2.4l20,76.4c0.6,2.2,2.5,2.9,4.7,2.9c0.3,0,0.5,0,0.8-0.1l19-3.1
		c2-0.3,4.3-0.5,5.8-2c1.1-1.2,1.7-2.8,1.9-4.4c-1.1,0.4-2.4,0.5-3.5,0.7l-19,3.1c-0.3,0-0.5,0.1-0.8,0.1c-2.2,0-4.1-0.8-4.7-2.9
		l-20-76.4l-23.5,2.4c-2.4,0.2-4.8-0.6-5.4-2.9L4.5,43.9c-0.2-0.8-0.3-1.6-0.3-2.4C4.2,41.1,4.2,40.6,4.3,40.2L4.3,40.2z M82.3,97.2
		l-5.2-19.9c3,4.9,6.8,9.7,10.2,15.3c9,14.6,17.2,27.9,17.2,27.9c1.4,2.3,3.2,3.8,5.4,4.7c1.9,0.8,3.9,1.1,5.8,1.1
		c1.7,0,3.4-0.2,5.3-0.4c1.7-0.2,3-0.3,4.3-0.6c0.9-0.2,1.8-0.5,2.7-1c-0.5,3-1.8,4.2-3.8,5.5c-1.1,0.8-2.1,1.1-3.1,1.3
		c-1.3,0.3-2.6,0.5-4.3,0.6c-1.9,0.2-3.6,0.4-5.3,0.4c-2,0-4-0.3-5.8-1.1c-2.2-0.9-4-2.4-5.4-4.7c0,0-8.2-13.3-17.2-27.9
		C82.8,98.1,82.6,97.6,82.3,97.2L82.3,97.2z M133,109l7.3,12.4l0,0.1c1.2,1.9,2.9,3.3,4.9,4.1c1.9,0.8,3.9,1.1,5.8,1.1
		c1.6,0,2.8-0.1,4.4-0.3c3.2-0.6,5.4-1.1,7.8-2.6c1.2-0.8,2.4-1.8,3.3-3.1c0.5-0.8,0.9-1.8,1.2-2.8c-0.1,0.1-0.2,0.1-0.2,0.2
		c-2.5,1.5-4.6,2.1-7.8,2.6c-1.6,0.3-2.9,0.3-4.4,0.3c-1.9,0-3.9-0.3-5.8-1.1c-1.9-0.8-3.7-2.3-4.9-4.1l0-0.1l-10.8-18.2L133,109
		L133,109z M175.1,79l9.8,36.6c0.6,2.2,2.5,3.5,4.7,3.5c0.3,0,1.2,0,1.4-0.1l17.7-2.9c1.8-0.3,3-0.7,4.8-2.1
		c0.9-0.7,1.5-1.6,1.7-1.9c1.4,1,2.7,1.6,4.3,1.6c0,0,0.8,0.1,0.8,0.1c0.5,0,0.9,0,1.5,0c0.5,0,1.4-0.1,2.5-0.3
		c3.4-0.5,8.5-1.4,8.7-1.5c1.6-0.4,3.2-1.1,4-2.6l1.5-2.7l0.7-1.2c-0.6,0.3-1.3,0.5-1.9,0.7c-0.2,0-5.3,1-8.7,1.5
		c-1.1,0.2-2,0.2-2.5,0.3c-0.6,0-1,0-1.5,0c0,0-0.8-0.1-0.8-0.1c-1.6,0-2.9-0.6-4.3-1.6c-0.2,0.3-0.8,1.2-1.7,1.9
		c-1.8,1.4-3,1.8-4.8,2.1l-17.7,2.9c-0.3,0-1.2,0.1-1.4,0.1c-2.2,0-4.1-1.4-4.7-3.5l-12.7-47.6C175.9,67.3,175.6,73,175.1,79
		L175.1,79z M246.7,93.9l12.6,11.2c1.4,1.3,3.3,1.8,5,1.5c1.2-0.2,18.5-2.9,20.6-3.3c3.6-0.7,6.3-3,6.4-6.5
		c-0.7,0.3-1.4,0.5-2.2,0.7c-2.1,0.4-19.4,3.1-20.6,3.3c-1.7,0.3-3.6-0.3-5-1.5l-13.2-11.8L246.7,93.9L246.7,93.9z M188.3,32.6
		L188.3,32.6c-5.5,0.6-11-3.7-12.4-8.9c-0.6-2.4-0.3-4.7,0.7-6.5c0.3,2.1,0.6,4.3,0.6,4.4c0.1,0.2,5.7,6.5,6.3,6.9
		c0.6,0.3,7.7,2,9.5,2.1C191.8,31.7,190.2,32.4,188.3,32.6L188.3,32.6z M211.2,63.7l-3.3-12.5c6.2,5.5,15.6,14,20.9,18.7
		c-1.4,2.5-6.6,12-8.6,15.7l0,0c-2.3,4.2,0.2,4.6-1.3,7.4l-1.2-4.6c2.4-4.4,5.9-10.7,7-12.7C221.2,72.7,216,68,211.2,63.7z"/>
	<path class="st1" d="M294.5,87.7c-0.4-1.3-1.1-2.6-2.8-4c0,0-8-6.9-15.2-13.2c-4.3-3.7-8-7.1-10.7-9.5c1.2-2.2,2.7-5,4.3-7.9
		c3.3-6,6.3-11.5,6.7-12.3c1.1-2.6,1.3-4,1.3-5.7c0-1-0.1-2-0.5-3.1c-0.4-1.2-1-2.4-1.9-3.2c-1.3-1.1-2.9-1.6-4.6-1.6
		c-0.3,0-0.7,0-1,0.1c0,0-0.1,0-0.1,0c-0.1,0-0.1,0-0.2,0c-0.4,0-0.8,0-1.2,0.1c-2.2,0.3-10.6,1.2-10.6,1.2c-1.6,0.2-3,1.1-3.7,2.5
		l-7.4,13.6l-14-12.2c-0.7-0.6-1.7-0.9-2.6-0.8c0,0-1,0.1-1.3,0.1c0,0-20.7,2.3-22.5,2.5c-1.6,0.2-3.1,0.8-4.2,1.6
		c-0.6-0.6-1.5-1-2.8-0.9c0,0-1,0.1-1.3,0.1l-1.1,0.1c2.1-2.5,3.3-5.6,3.2-9.1c0-1.3-0.2-2.7-0.5-4.1c-2.2-8.4-10.5-14.6-19.1-14.7
		c-0.5,0-0.9,0-1.4,0.1c-7.7,0.6-13,6.6-12.9,13.9c0,1.4,0.2,2.8,0.6,4.3c1.4,5.4,5.2,9.8,9.8,12.3c-1,0.5-1.9,1.1-2.7,1.9
		c-0.1,0.1-0.2,0.2-0.2,0.3c-1.4-1-3.2-1.7-5.1-1.7c-0.3,0-0.7,0-1.1,0.1c0,0-9.2,0.9-9.2,0.9c-2.3,0.2-4.1,2-4.3,4.3
		c0,0-2.3,24.7-2.3,24.7s-13.1-20.8-13.1-20.8c-0.9-1.5-2-2.9-3.7-3.8c-2.3-1.4-5-1.6-9.6-1.1c-2.6,0.3-6.2,1.4-7.8,2.4
		c-1.2,0.7-2.3,1.8-3,3.2c-0.8,1.3-1.1,2.8-1.2,4.3l-1.7,21L96.4,48.3c-0.6-1-1.8-1.6-3-1.5c0,0-0.4,0-0.8,0.1
		c0.5-1.1,0.7-2.3,0.7-3.4c0-0.9-0.1-1.7-0.3-2.5l-2.9-12.1c-0.4-1.5-1.5-2.6-3.5-2.4l-75.5,7.2c-1.8,0.2-3.7,0.9-5.2,2.4
		c-1.5,1.4-2.4,3.6-2.3,5.7c0,0.8,0.1,1.6,0.3,2.4l3.1,11.8c0.6,2.3,2.8,3.8,5.2,3.6L36.2,57l19.9,75.8c0.6,2.2,2.5,3.6,4.7,3.6
		c0.3,0,0.5,0,0.8-0.1l19.1-3.2c2-0.3,3.9-1.2,5.4-2.8c1.5-1.6,2.2-3.7,2.2-5.8c0-0.9-0.1-1.7-0.3-2.5L76.3,77.6
		c3,4.9,6.5,10.6,10,16.2c9,14.6,17.2,27.8,17.2,27.8c1.4,2.3,3,4,5.2,4.8c1.9,0.8,3.8,1.1,5.8,1.1c1.7,0,3.3,0,5.2-0.3
		c3.1-0.6,5.4-1,7.8-2.8c2.5-1.8,4-4.1,4.1-8.8l1.2-18l10.7,18.2l0,0.1c1.2,1.9,2.9,3.3,4.8,4.1c1.9,0.8,3.9,1.1,5.8,1.1
		c1.6,0,2.8-0.1,4.4-0.3c3.2-0.6,5.3-1.1,7.8-2.6c1.2-0.8,2.4-1.8,3.3-3.1c0.9-1.3,1.4-3.2,1.5-4.7c0,0,1.3-14.5,2.6-29.3
		c0.6-6.7,1.2-13.4,1.7-18.9l12.8,48.6c0.6,2.2,2.5,3.6,4.7,3.6c0.3,0,0.5,0,0.8-0.1l18.1-3c1.8-0.3,3.7-1,5.4-2.6
		c0.3-0.2,0.5-0.5,0.7-0.8c1.4,1,3.1,1.4,4.7,1.4c0,0,0,0,0.1,0c0.5,0,1.1,0,1.7-0.1c2.4-0.4,11.8-2,11.8-2c1.6-0.3,2.8-1,3.8-2.6
		l8.7-15.8l13.1,11.7c1.4,1.3,3.3,1.8,5,1.5c1.2-0.2,19.2-3.2,21.3-3.5c3.8-0.6,6.6-4,6.6-7.6C294.9,90,294.9,89.1,294.5,87.7
		L294.5,87.7z M182.2,13.4L182.2,13.4c5.4-0.5,10.9,3.4,12.3,8.8c1.4,5.4-1.9,10.2-7.2,10.7c-5.5,0.6-11-3.7-12.4-8.9
		C173.5,18.7,176.8,13.8,182.2,13.4L182.2,13.4z M224,81.9L224,81.9c-2.3,4.2-4.7,8.5-6.2,11.3l-11-41.7c6.2,5.5,17.4,15.4,22.7,20
		C228.1,74,226,78.2,224,81.9z"/>
	<path class="st0" d="M297.2,84.1c-0.4-1.3-1.1-2.6-2.8-4c0,0-8-6.9-15.2-13.2c-4.3-3.7-8-7.1-10.7-9.5c1.2-2.2,2.7-5,4.3-7.9
		c3.3-6,6.3-11.5,6.7-12.3c1.1-2.6,1.3-4,1.3-5.7c0-1-0.1-2-0.5-3.1c-0.4-1.2-1-2.4-1.9-3.2c-1.3-1.1-2.9-1.6-4.6-1.6
		c-0.3,0-0.7,0-1,0.1c0,0-0.1,0-0.1,0c-0.1,0-0.1,0-0.2,0c-0.4,0-0.8,0-1.2,0.1c-2.2,0.3-10.6,1.2-10.6,1.2c-1.6,0.2-3,1.1-3.7,2.5
		L249.5,41l-14-12.2c-0.7-0.6-1.7-0.9-2.6-0.8c0,0-1,0.1-1.3,0.1c0,0-20.7,2.3-22.5,2.5c-1.6,0.2-3.1,0.8-4.2,1.6
		c-0.6-0.6-1.5-1-2.8-0.9c0,0-1,0.1-1.3,0.1l-1.1,0.1c2.1-2.5,3.3-5.6,3.2-9.1c0-1.3-0.2-2.7-0.5-4.1C200.3,10,192,3.8,183.4,3.8
		c-0.5,0-0.9,0-1.4,0.1c-7.7,0.6-13,6.6-12.9,13.9c0,1.4,0.2,2.8,0.6,4.3c1.4,5.4,5.2,9.8,9.8,12.3c-1,0.5-1.9,1.1-2.7,1.9
		c-0.1,0.1-0.2,0.2-0.2,0.3c-1.4-1-3.2-1.7-5.1-1.7c-0.3,0-0.7,0-1.1,0.1c0,0-9.2,0.9-9.2,0.9c-2.3,0.2-4.1,2-4.3,4.3
		c0,0-2.3,24.7-2.3,24.7s-13.1-20.8-13.1-20.8c-0.9-1.5-2-2.9-3.7-3.8c-2.3-1.4-5-1.6-9.6-1.1c-2.6,0.3-6.2,1.4-7.8,2.4
		c-1.2,0.7-2.3,1.8-3,3.2c-0.8,1.3-1.1,2.8-1.2,4.3l-1.7,21L99.1,44.6c-0.6-1-1.8-1.6-3-1.5c0,0-0.4,0-0.8,0.1
		c0.5-1.1,0.7-2.3,0.7-3.4c0-0.9-0.1-1.7-0.3-2.5l-2.9-12.1c-0.4-1.5-1.5-2.6-3.5-2.4L13.8,30c-1.8,0.2-3.7,0.9-5.2,2.4
		c-1.5,1.4-2.4,3.6-2.3,5.7c0,0.8,0.1,1.6,0.3,2.4l3.1,11.8c0.6,2.3,2.8,3.8,5.2,3.6l23.9-2.5l19.9,75.8c0.6,2.2,2.5,3.6,4.7,3.6
		c0.3,0,0.5,0,0.8-0.1l19.1-3.2c2-0.3,3.9-1.2,5.4-2.8c1.5-1.6,2.2-3.7,2.2-5.8c0-0.9-0.1-1.7-0.3-2.5L79,73.9
		c3,4.9,6.5,10.6,10,16.2c9,14.6,17.2,27.8,17.2,27.8c1.4,2.3,3,4,5.2,4.8c1.9,0.8,3.8,1.1,5.8,1.1c1.7,0,3.3,0,5.2-0.3
		c3.1-0.6,5.4-1,7.8-2.8c2.5-1.8,4-4.1,4.1-8.8l1.2-18l10.7,18.2l0,0.1c1.2,1.9,2.9,3.3,4.8,4.1c1.9,0.8,3.9,1.1,5.8,1.1
		c1.6,0,2.8-0.1,4.4-0.3c3.2-0.6,5.3-1.1,7.8-2.6c1.2-0.8,2.4-1.8,3.3-3.1c0.9-1.3,1.4-3.2,1.5-4.7c0,0,1.3-14.5,2.6-29.3
		c0.6-6.7,1.2-13.4,1.7-18.9l12.8,48.6c0.6,2.2,2.5,3.6,4.7,3.6c0.3,0,0.5,0,0.8-0.1l18.1-3c1.8-0.3,3.7-1,5.4-2.6
		c0.3-0.2,0.5-0.5,0.7-0.8c1.4,1,3.1,1.4,4.7,1.4c0,0,0,0,0.1,0c0.5,0,1.1,0,1.7-0.1c2.4-0.4,11.8-2,11.8-2c1.6-0.3,2.8-1,3.8-2.6
		l8.7-15.8l13.1,11.7c1.4,1.3,3.3,1.8,5,1.5c1.2-0.2,19.2-3.2,21.3-3.5c3.8-0.6,6.6-4,6.6-7.6C297.6,86.3,297.6,85.5,297.2,84.1
		L297.2,84.1z M184.8,9.7L184.8,9.7c5.4-0.5,10.9,3.4,12.3,8.8c1.4,5.4-1.9,10.2-7.2,10.7c-5.5,0.6-11-3.7-12.4-8.9
		C176.2,15,179.4,10.2,184.8,9.7L184.8,9.7z M226.6,78.2L226.6,78.2c-2.3,4.2-4.7,8.5-6.2,11.3l-11-41.7c6.2,5.5,17.4,15.4,22.7,20
		C230.8,70.3,228.7,74.5,226.6,78.2z"/>
	<ellipse class="st1" cx="189.5" cy="16.7" rx="11" ry="10.5"/>
	<path class="st2" d="M299.6,81c-0.4-1.3-1.1-2.6-2.8-4c0,0-8-6.9-15.2-13.2c-4.3-3.7-8-7.1-10.7-9.5c1.2-2.2,2.7-5,4.3-7.9
		c3.3-6,6.3-11.5,6.7-12.3c1.1-2.6,1.3-4,1.3-5.7c0-1-0.1-2-0.5-3.1c-0.4-1.2-1-2.4-1.9-3.2c-1.3-1.1-2.9-1.6-4.6-1.6
		c-0.3,0-0.7,0-1,0.1c0,0-0.1,0-0.1,0c-0.1,0-0.1,0-0.2,0c-0.4,0-0.8,0-1.2,0.1c-2.2,0.3-10.6,1.2-10.6,1.2c-1.6,0.2-3,1.1-3.7,2.5
		L252,37.9l-14-12.2c-0.7-0.6-1.7-0.9-2.6-0.8c0,0-1,0.1-1.3,0.1c0,0-20.7,2.3-22.5,2.5c-1.6,0.2-3.1,0.8-4.2,1.6
		c-0.6-0.6-1.5-1-2.8-0.9c0,0-1,0.1-1.3,0.1l-1.1,0.1c2.1-2.5,3.3-5.6,3.2-9.1c0-1.3-0.2-2.7-0.5-4.1C202.7,7,194.5,0.8,185.8,0.7
		c-0.5,0-0.9,0-1.4,0.1c-7.7,0.6-13,6.6-12.9,13.9c0,1.4,0.2,2.8,0.6,4.3c1.4,5.4,5.2,9.8,9.8,12.3c-1,0.5-1.9,1.1-2.7,1.9
		c-0.1,0.1-0.2,0.2-0.2,0.3c-1.4-1-3.2-1.7-5.1-1.7c-0.3,0-0.7,0-1.1,0.1c0,0-9.2,0.9-9.2,0.9c-2.3,0.2-4.1,2-4.3,4.3
		c0,0-2.3,24.7-2.3,24.7S143.8,41,143.8,41c-0.9-1.5-2-2.9-3.7-3.8c-2.3-1.4-5-1.6-9.6-1.1c-2.6,0.3-6.2,1.4-7.8,2.4
		c-1.2,0.7-2.3,1.8-3,3.2c-0.8,1.3-1.1,2.8-1.2,4.3l-1.7,21l-15.2-25.4c-0.6-1-1.8-1.6-3-1.5c0,0-0.4,0-0.8,0.1
		c0.5-1.1,0.7-2.3,0.7-3.4c0-0.9-0.1-1.7-0.3-2.5l-2.9-12.1c-0.4-1.5-1.5-2.6-3.5-2.4L16.3,27c-1.8,0.2-3.7,0.9-5.2,2.4
		c-1.5,1.4-2.4,3.6-2.3,5.7c0,0.8,0.1,1.6,0.3,2.4l3.1,11.8c0.6,2.3,2.8,3.8,5.2,3.6l23.9-2.5L61.2,126c0.6,2.2,2.5,3.6,4.7,3.6
		c0.3,0,0.5,0,0.8-0.1l19.1-3.2c2-0.3,3.9-1.2,5.4-2.8c1.5-1.6,2.2-3.7,2.2-5.8c0-0.9-0.1-1.7-0.3-2.5L81.4,70.8
		c3,4.9,6.5,10.6,10,16.2c9,14.6,17.2,27.8,17.2,27.8c1.4,2.3,3,4,5.2,4.8c1.9,0.8,3.8,1.1,5.8,1.1c1.7,0,3.3,0,5.2-0.3
		c3.1-0.6,5.4-1,7.8-2.8c2.5-1.8,4-4.1,4.1-8.8l1.2-18l10.7,18.2l0,0.1c1.2,1.9,2.9,3.3,4.8,4.1c1.9,0.8,3.9,1.1,5.8,1.1
		c1.6,0,2.8-0.1,4.4-0.3c3.2-0.6,5.3-1.1,7.8-2.6c1.2-0.8,2.4-1.8,3.3-3.1c0.9-1.3,1.4-3.2,1.5-4.7c0,0,1.3-14.5,2.6-29.3
		c0.6-6.7,1.2-13.4,1.7-18.9l12.8,48.6c0.6,2.2,2.5,3.6,4.7,3.6c0.3,0,0.5,0,0.8-0.1l18.1-3c1.8-0.3,3.7-1,5.4-2.6
		c0.3-0.2,0.5-0.5,0.7-0.8c1.4,1,3.1,1.4,4.7,1.4c0,0,0,0,0.1,0c0.5,0,1.1,0,1.7-0.1c2.4-0.4,11.8-2,11.8-2c1.6-0.3,2.8-1,3.8-2.6
		l8.7-15.8l13.1,11.7c1.4,1.3,3.3,1.8,5,1.5c1.2-0.2,19.2-3.2,21.3-3.5c3.8-0.6,6.6-4,6.6-7.6C300,83.2,300,82.4,299.6,81L299.6,81z
		 M187.3,6.6L187.3,6.6c5.4-0.5,10.9,3.4,12.3,8.8c1.4,5.4-1.9,10.2-7.2,10.7c-5.5,0.6-11-3.7-12.4-8.9
		C178.6,12,181.9,7.1,187.3,6.6L187.3,6.6z M229.1,75.1L229.1,75.1c-2.3,4.2-4.7,8.5-6.2,11.3l-11-41.7c6.2,5.5,17.4,15.4,22.7,20
		C233.2,67.3,231.1,71.4,229.1,75.1z"/>
	<g>
		<path class="st0" d="M171.6,37.2c-2.5,0.3-7.2,0.8-7.2,0.8s-3.7,37.4-3.8,39.9c-1.4-2.3-21-32.9-21-32.9c-1.9-3.1-4.1-4-8.9-3.5
			c-4.2,0.5-6.8,1.6-7.1,5.1l-2.9,37L97.3,45.5c0,0-14,1.6-18.3,2c-3.4,0.4-4.9,3.7-2.9,6.9c1.7,2.7,36.7,59.6,36.7,59.6
			c1.6,2.6,5.2,3.2,10.9,2.2c5.4-0.9,8.5-2.9,8.7-6.5l2-31.7l17.9,29.2c1.9,3,5.5,3.4,10.4,2.6c5.7-1,9-2.7,9.3-6.1
			c0,0,5.2-58,5.5-60.6C177.9,39.7,175.4,36.8,171.6,37.2z"/>
		<path class="st0" d="M293.6,82c-1.8-1.5-29.8-26-29.8-26s12.6-23.1,13.5-24.8c1.7-3,0.1-5.6-3.4-5.2c-2.3,0.3-10.6,1.2-10.6,1.2
			l-10.5,19.4l-18.5-16.2c0,0-20.7,2.3-22.5,2.5c-2.5,0.3-3.7,3.3-1.5,5.3c0.8,0.7,30,26.5,30,26.5S226,90.8,225.2,92.3
			c-2,3.5,0,6.3,3.5,5.7c2.3-0.4,11-1.9,11-1.9l11.8-21.5L270,91c0,0,20.4-3.4,22.4-3.7C294.9,86.9,295.8,83.9,293.6,82z"/>
		<g>
			<path class="st0" d="M216.2,100c3.1-0.5,4.3-2.3,3.4-5.7l-15.9-60.6l-18.5,2c-2.6,0.3-4.2,2.5-3.6,4.9l16.4,62.5L216.2,100z"/>
		</g>
		<g>
			<path class="st0" d="M65.9,125.2L45.7,48.4c-0.5-1.9-1.8-3-4.4-2.7l-24.5,2.5l-3.1-11.7c-0.6-2.5,0.8-4.1,2.9-4.3l74.1-7.1
				l2.6,10.7c0.7,2.6-0.6,4.4-3.5,4.7l-31.6,3.3c-0.7,0.1-1.1,0.4-1,0.9c0.1,0.5,0.5,0.7,1.6,0.8l6.9,0.7c3.3,0.3,4.6,2,5.1,3.9
				L88.3,117c0.7,2.5-0.7,4.6-3.3,5L65.9,125.2z"/>
		</g>
	</g>
	<g>
		<path class="st3" d="M173.2,34.9c-2.5,0.3-7.2,0.8-7.2,0.8s-3.7,37.4-3.8,39.9c-1.4-2.3-21-32.9-21-32.9c-1.9-3.1-4.1-4-8.9-3.5
			c-4.2,0.5-6.8,1.6-7.1,5.1l-2.9,37L98.9,43.2c0,0-14,1.6-18.3,2c-3.4,0.4-4.9,3.7-2.9,6.9c1.7,2.7,36.7,59.6,36.7,59.6
			c1.6,2.6,5.2,3.2,10.9,2.2c5.4-0.9,8.5-2.9,8.7-6.5l2-31.7l17.9,29.2c1.9,3,5.5,3.4,10.4,2.6c5.7-1,9-2.7,9.3-6.1
			c0,0,5.2-58,5.5-60.6C179.4,37.4,176.9,34.5,173.2,34.9z"/>
		<path class="st3" d="M295.2,79.7c-1.8-1.5-29.8-26-29.8-26s12.6-23.1,13.5-24.8c1.7-3,0.1-5.6-3.4-5.2c-2.3,0.3-10.6,1.2-10.6,1.2
			l-10.5,19.4L235.9,28c0,0-20.7,2.3-22.5,2.5c-2.5,0.3-3.7,3.3-1.5,5.3c0.8,0.7,30,26.5,30,26.5S227.6,88.5,226.8,90
			c-2,3.5,0,6.3,3.5,5.7c2.3-0.4,11-1.9,11-1.9l11.8-21.5l18.4,16.4c0,0,20.4-3.4,22.4-3.7C296.5,84.6,297.4,81.6,295.2,79.7z"/>
		<g>
			<path class="st3" d="M217.7,97.8c3.1-0.5,4.3-2.3,3.4-5.7l-15.9-60.6l-18.5,2c-2.6,0.3-4.2,2.5-3.6,4.9l16.4,62.5L217.7,97.8z"/>
		</g>
		<g>
			<path class="st3" d="M67.4,122.9L47.3,46.1c-0.5-1.9-1.8-3-4.4-2.7L18.4,46l-3.1-11.7c-0.6-2.5,0.8-4.1,2.9-4.3l74.1-7.1
				l2.6,10.7c0.7,2.6-0.6,4.4-3.5,4.7l-31.6,3.3c-0.7,0.1-1.1,0.4-1,0.9c0.1,0.5,0.5,0.7,1.6,0.8l6.9,0.7c3.3,0.3,4.6,2,5.1,3.9
				l17.5,66.7c0.7,2.5-0.7,4.6-3.3,5L67.4,122.9z"/>
		</g>
	</g>
	<path class="st3" d="M187.3,6.6c5.4-0.5,10.9,3.4,12.3,8.8c1.4,5.4-1.9,10.2-7.2,10.7c-5.5,0.6-11-3.7-12.4-8.9
		C178.6,12,181.9,7.1,187.3,6.6L187.3,6.6z M186.4,4L186.4,4c-7,0.6-11.1,6.7-9.3,13.7c1.8,6.9,8.9,12,15.8,11.3
		c6.9-0.7,11.1-6.8,9.3-13.6C200.5,8.4,193.4,3.4,186.4,4z"/>
	<path class="st3" d="M288.6,15.2c0.6,0,1.1,0,1.1-0.8c0-0.6-0.5-0.7-1-0.7h-1l0,1.4H288.6L288.6,15.2z M288.6,18.8
		c-1.9,0-3.3-1.4-3.3-3.4c0-1.9,1.5-3.4,3.3-3.4c1.8,0,3.3,1.4,3.3,3.4C291.8,17.4,290.4,18.8,288.6,18.8L288.6,18.8L288.6,18.8z
		 M287.7,17.8L287.7,17.8H287l0-4.7h1.8c1.1,0,1.6,0.4,1.6,1.3c0,0.8-0.5,1.2-1.2,1.3l1.3,2.1h-0.8l-1.2-2h-0.8L287.7,17.8
		L287.7,17.8z M288.6,19.6L288.6,19.6c-2.3,0-4.1-1.8-4.1-4.2c0-2.4,1.8-4.2,4.1-4.2c2.3,0,4.1,1.8,4.1,4.2
		C292.6,17.9,290.8,19.6,288.6,19.6z"/>
	<path class="st0" d="M192.6,20.8c-0.3,0-0.7-0.2-0.7-0.5l-2.4-9.2c0-0.1,0-0.2,0-0.3c0.1-0.1,0.2-0.2,0.3-0.2l1.3-0.1
		c0.4,0,0.7,0.2,0.8,0.5l2.4,9.1c0,0.1,0,0.2-0.1,0.3c-0.1,0.1-0.2,0.2-0.3,0.2L192.6,20.8L192.6,20.8z"/>
	<path class="st0" d="M188.7,21.2c-0.3,0-0.7-0.2-0.7-0.5l-2.4-9.2c0-0.1,0-0.2,0-0.3c0.1-0.1,0.2-0.2,0.3-0.2l1.4-0.1
		c0.4,0,0.7,0.2,0.8,0.5l2.4,9.1c0,0.1,0,0.2,0,0.3c-0.1,0.1-0.2,0.2-0.3,0.2L188.7,21.2L188.7,21.2z"/>
</g>
</svg>
