<?xml version="1.0" encoding="utf-8"?>
<!-- Generator: Adobe Illustrator 25.2.3, SVG Export Plug-In . SVG Version: 6.00 Build 0)  -->
<svg version="1.1" id="Layer_1" xmlns="http://www.w3.org/2000/svg" xmlns:xlink="http://www.w3.org/1999/xlink" x="0px" y="0px"
	 viewBox="0 0 556.4 33.8" style="enable-background:new 0 0 556.4 33.8;" xml:space="preserve">
<style type="text/css">
	.st0{fill:#000F5F;}
</style>
<g>
	<path class="st0" d="M0,5.7h12.5c1.7,0,3,0.3,4.1,0.8C17.6,7,18.4,7.8,19,8.9c0.5,1.1,0.8,2.5,0.8,4.3v2.6c0,1.7-0.3,3.2-0.8,4.3
		c-0.5,1.1-1.3,1.9-2.3,2.5c-1,0.5-2.3,0.8-3.8,0.8h-0.1c-1,0-1.9-0.1-2.6-0.3c-0.7-0.2-1.2-0.5-1.6-0.9c-0.4-0.4-0.7-0.8-1-1.4
		L7,21c0.2,0.7,0.3,1.3,0.3,1.8c0,0.5,0.1,1.2,0.1,2.1v5.2H0V5.7z M7.6,16.7C7.7,17,8,17.3,8.4,17.4c0.4,0.2,0.9,0.2,1.6,0.2
		c0.8,0,1.4-0.1,1.8-0.3c0.4-0.2,0.7-0.5,0.8-0.9c0.2-0.4,0.2-1,0.2-1.7v-0.2c0-0.7-0.1-1.2-0.2-1.6c-0.2-0.4-0.5-0.7-0.9-0.9
		c-0.4-0.2-1-0.3-1.8-0.3H7.3v3.7C7.3,16,7.4,16.4,7.6,16.7z"/>
	<path class="st0" d="M26.2,5.7h10.1l7.4,24.4h-7.7l-0.5-1.9c-0.2-0.7-0.4-1.3-0.8-1.7c-0.3-0.4-0.8-0.7-1.3-1
		c-0.6-0.2-1.3-0.3-2.1-0.3c-0.8,0-1.6,0.1-2.1,0.3c-0.6,0.2-1,0.5-1.3,1c-0.3,0.4-0.6,1-0.8,1.7l-0.5,1.9h-7.7L26.2,5.7z
		 M30.5,20.3c0.5-0.3,1.1-0.5,1.7-0.5c0.3,0,0.6,0,1,0.1c-0.4-1.7-1-4.2-1.6-7.4h-0.6c-0.4,1.7-0.7,3.2-0.9,4.4
		c-0.3,1.2-0.5,2.1-0.7,2.7c-0.2,0.7-0.5,1.4-0.8,2l0.5,0.2C29.5,21.1,30,20.6,30.5,20.3z"/>
	<path class="st0" d="M45.7,5.7h12c0.2,1.6,0.3,3.2,0.5,4.7s0.4,3.3,0.7,5.5c0.3,2.5,0.6,4.8,0.9,6.9h0.6c0.3-2.3,0.6-4.6,0.9-6.7
		c0.2-1.7,0.4-3.4,0.7-5.2c0.2-1.8,0.4-3.5,0.6-5.1h12v24.4h-7.1v-4.3c0-4.3,0.1-8.8,0.4-13.4l-0.6,0c-0.2,1.4-0.4,2.9-0.7,4.4
		c-0.3,1.5-0.5,3-0.7,4.4c-0.3,1.5-0.5,3.1-0.8,4.7c-0.3,1.6-0.5,3-0.7,4.3h-8.3c-0.2-1.2-0.4-2.7-0.6-4.2c-0.3-1.6-0.5-3.1-0.8-4.6
		c-0.5-3-1-5.9-1.4-8.9l-0.6,0c0.3,4.7,0.4,9.1,0.4,13.4v4.3h-7.1V5.7z"/>
	<path class="st0" d="M83.9,5.7h10.1l7.4,24.4h-7.7l-0.5-1.9c-0.2-0.7-0.4-1.3-0.8-1.7c-0.3-0.4-0.8-0.7-1.3-1
		c-0.6-0.2-1.3-0.3-2.1-0.3c-0.8,0-1.6,0.1-2.1,0.3c-0.6,0.2-1,0.5-1.3,1c-0.3,0.4-0.6,1-0.8,1.7l-0.5,1.9h-7.7L83.9,5.7z
		 M88.1,20.3c0.5-0.3,1.1-0.5,1.7-0.5c0.3,0,0.6,0,1,0.1c-0.4-1.7-1-4.2-1.6-7.4h-0.6c-0.4,1.7-0.7,3.2-0.9,4.4
		c-0.3,1.2-0.5,2.1-0.7,2.7c-0.2,0.7-0.5,1.4-0.8,2l0.5,0.2C87.2,21.1,87.7,20.6,88.1,20.3z"/>
	<path class="st0" d="M106.9,29.7c-1.5-0.5-2.5-1.3-3.1-2.3s-0.9-2.2-0.9-3.7c0-0.8,0.1-1.7,0.2-2.6l6.8-0.3
		c-0.1,0.5-0.1,0.9-0.1,1.3c0,0.6,0.1,1,0.3,1.4c0.2,0.3,0.5,0.6,0.9,0.8c0.4,0.2,1,0.3,1.7,0.3c0.7,0,1.2-0.1,1.6-0.3
		c0.4-0.2,0.7-0.4,0.8-0.8s0.3-0.8,0.3-1.4v-0.3c0-0.6-0.1-1.1-0.3-1.5c-0.2-0.3-0.5-0.6-0.9-0.7c-0.4-0.2-1-0.2-1.8-0.2h-1.8v-3.6
		h1.9c0.7,0,1.3-0.1,1.6-0.2c0.4-0.2,0.6-0.4,0.8-0.7c0.2-0.3,0.2-0.8,0.2-1.4v-0.1c0-0.5-0.1-0.9-0.2-1.2c-0.1-0.3-0.4-0.5-0.8-0.7
		s-0.9-0.2-1.6-0.2c-0.6,0-1.1,0.1-1.6,0.2c-0.4,0.1-0.7,0.4-0.9,0.7c-0.2,0.3-0.3,0.8-0.3,1.3c0,0.3,0,0.7,0.1,1l-6.7,0.3
		c-0.2-0.9-0.3-1.9-0.3-2.8c0-1.4,0.3-2.6,0.9-3.6c0.6-1,1.6-1.7,3-2.2c1.4-0.5,3.3-0.8,5.8-0.8c3.1,0,5.4,0.5,7,1.6
		c1.6,1,2.4,2.8,2.4,5.1v0.2c0,1-0.1,1.8-0.4,2.5c-0.3,0.7-0.7,1.2-1.3,1.7c-0.6,0.4-1.3,0.8-2.2,1.1v0.6c0.9,0.2,1.7,0.5,2.3,0.9
		c0.6,0.4,1.1,1,1.4,1.7c0.3,0.7,0.5,1.6,0.5,2.7V24c0,1.7-0.4,3-1.2,3.9c-0.8,0.9-1.9,1.6-3.2,2c-1.4,0.4-3.1,0.6-5.1,0.6
		C110.3,30.5,108.3,30.2,106.9,29.7z"/>
	<path class="st0" d="M130.6,5.7h10.1l7.4,24.4h-7.7l-0.5-1.9c-0.2-0.7-0.4-1.3-0.8-1.7c-0.3-0.4-0.8-0.7-1.3-1
		c-0.6-0.2-1.3-0.3-2.1-0.3c-0.8,0-1.6,0.1-2.1,0.3c-0.6,0.2-1,0.5-1.3,1c-0.3,0.4-0.6,1-0.8,1.7l-0.5,1.9h-7.7L130.6,5.7z
		 M134.9,20.3c0.5-0.3,1.1-0.5,1.7-0.5c0.3,0,0.6,0,1,0.1c-0.4-1.7-1-4.2-1.6-7.4h-0.6c-0.4,1.7-0.7,3.2-0.9,4.4
		c-0.3,1.2-0.5,2.1-0.7,2.7c-0.2,0.7-0.5,1.4-0.8,2l0.5,0.2C133.9,21.1,134.4,20.6,134.9,20.3z"/>
	<path class="st0" d="M150.1,5.7h7.3v7.7c0,0.7,0,1.3-0.1,1.8c-0.1,0.5-0.2,1.1-0.4,1.7l0.5,0.2c0.5-0.9,1.2-1.6,2-2.1
		c0.8-0.5,1.8-0.7,3-0.7c0.5,0,1,0,1.5,0.1V5.7h7.3v24.4h-7.3V23c0-0.7-0.1-1.2-0.3-1.6c-0.2-0.4-0.6-0.8-1-1
		c-0.5-0.2-1.1-0.3-1.9-0.3c-0.8,0-1.4,0.1-1.9,0.3c-0.5,0.2-0.8,0.5-1,1c-0.2,0.4-0.3,1-0.3,1.6v7.1h-7.3V5.7z"/>
	<path class="st0" d="M187.6,5.7h10.1l7.4,24.4h-7.7l-0.5-1.9c-0.2-0.7-0.4-1.3-0.8-1.7c-0.3-0.4-0.8-0.7-1.3-1
		c-0.6-0.2-1.3-0.3-2.1-0.3c-0.8,0-1.6,0.1-2.1,0.3c-0.6,0.2-1,0.5-1.3,1c-0.3,0.4-0.6,1-0.8,1.7l-0.5,1.9h-7.7L187.6,5.7z
		 M191.9,20.3c0.5-0.3,1.1-0.5,1.7-0.5c0.3,0,0.6,0,1,0.1c-0.4-1.7-1-4.2-1.6-7.4h-0.6c-0.4,1.7-0.7,3.2-0.9,4.4
		c-0.3,1.2-0.5,2.1-0.7,2.7c-0.2,0.7-0.5,1.4-0.8,2l0.5,0.2C190.9,21.1,191.4,20.6,191.9,20.3z"/>
	<path class="st0" d="M221.6,30.1v-4.3c0-2.1,0.1-4.2,0.2-6.2s0.3-4.4,0.5-7.2l-0.6,0c-0.3,1.6-0.6,3.2-0.9,4.8
		c-0.3,1.6-0.6,3.2-0.9,4.6c-0.4,1.7-0.7,3.2-0.9,4.5c-0.3,1.3-0.5,2.6-0.7,3.8h-11.1V5.7h7.1V10c0,2.1-0.1,4.2-0.2,6.2
		c-0.1,2-0.3,4.4-0.5,7.2l0.6,0c0.2-1.2,0.4-2.6,0.7-4c0.3-1.4,0.5-2.8,0.8-4.1c0.4-2.2,0.8-4,1-5.4c0.2-1.4,0.5-2.8,0.7-4.3h11.4
		v24.4H221.6z M213.5,3.8c-1-0.3-1.7-0.7-2.1-1.4c-0.4-0.6-0.6-1.4-0.6-2.5h5.8c0,0.6,0.1,1,0.3,1.2c0.2,0.2,0.5,0.4,1,0.4
		c0.4,0,0.8-0.1,1-0.4c0.2-0.2,0.3-0.6,0.3-1.2h5.7c0,1-0.2,1.9-0.6,2.5s-1.1,1.1-2.1,1.4c-1,0.3-2.5,0.4-4.3,0.4
		S214.5,4.1,213.5,3.8z"/>
	<path class="st0" d="M231.8,5.7h7.3V14h4.8c1.8,0,3.3,0.2,4.4,0.7c1.2,0.5,2,1.3,2.6,2.4s0.9,2.6,0.9,4.5v0.9
		c0,1.8-0.3,3.3-0.9,4.4c-0.6,1.1-1.5,1.9-2.6,2.4c-1.2,0.5-2.6,0.7-4.4,0.7h-12.1V5.7z M243.6,23.6c0.3-0.1,0.6-0.3,0.7-0.6
		c0.1-0.3,0.2-0.6,0.2-1.1v-0.7c0-0.7-0.2-1.1-0.5-1.4c-0.3-0.3-0.9-0.4-1.6-0.4h-3.3v4.5h3.2C242.9,23.8,243.3,23.7,243.6,23.6z
		 M254.4,5.7h7.3v24.4h-7.3V5.7z"/>
	<path class="st0" d="M286,30.1h-2.5l-3.8-9.5h-0.7v9.5h-7.3V5.7h7.3v8.8h0.7l1.8-4.4c0.5-1.2,1.1-2.2,1.7-2.8
		c0.6-0.7,1.4-1.1,2.2-1.4c0.8-0.3,1.9-0.4,3.1-0.4c0.8,0,1.7,0.1,2.7,0.2v6.7c-0.6,0-1.1-0.1-1.4-0.1c-0.6,0-1.1,0.1-1.5,0.2
		c-0.4,0.1-0.7,0.3-1,0.6c-0.3,0.3-0.5,0.8-0.8,1.3l-1.1,2.6l3.3,7h4.1v10H286V30.1z"/>
	<path class="st0" d="M299.7,23.5l-7.4-17.8h7.9c0.3,0.8,0.5,1.6,0.8,2.6c0.3,1,0.6,1.9,0.9,2.8c0.7,2.4,1.3,4.2,1.7,5.5h0.6
		c0.3-1.2,0.7-3,1.2-5.5c0.2-0.9,0.4-1.8,0.6-2.8s0.4-1.8,0.6-2.6h7.7l-7.4,17.8v6.6h-7.3V23.5z"/>
	<path class="st0" d="M322.5,12.5H316V5.7h20.4v6.8h-6.6v17.6h-7.3V12.5z"/>
	<path class="st0" d="M341,12.5h-6.6V5.7h20.4v6.8h-6.6v17.6H341V12.5z"/>
	<path class="st0" d="M357.2,5.7h7.3V14h4.8c1.8,0,3.3,0.2,4.4,0.7c1.2,0.5,2,1.3,2.6,2.4s0.9,2.6,0.9,4.5v0.9
		c0,1.8-0.3,3.3-0.9,4.4c-0.6,1.1-1.5,1.9-2.6,2.4c-1.2,0.5-2.6,0.7-4.4,0.7h-12.1V5.7z M369,23.6c0.3-0.1,0.6-0.3,0.7-0.6
		c0.1-0.3,0.2-0.6,0.2-1.1v-0.7c0-0.7-0.2-1.1-0.5-1.4c-0.3-0.3-0.9-0.4-1.6-0.4h-3.3v4.5h3.2C368.3,23.8,368.7,23.7,369,23.6z
		 M379.7,5.7h7.3v24.4h-7.3V5.7z"/>
	<path class="st0" d="M397.2,5.7h17.2v6.6h-9.9v3.1h6c1.5,0,2.7,0.2,3.7,0.7c1,0.5,1.7,1.2,2.2,2.2c0.5,1,0.8,2.4,0.8,4.1V23
		c0,1.7-0.3,3.1-0.8,4.1c-0.5,1-1.3,1.8-2.2,2.2c-1,0.5-2.2,0.7-3.7,0.7h-13.4V5.7z M409.1,23.9c0.3-0.1,0.5-0.3,0.7-0.6
		c0.1-0.3,0.2-0.6,0.2-1.1v-0.2c0-0.7-0.2-1.1-0.5-1.4c-0.3-0.3-0.8-0.4-1.5-0.4h-3.5v4h3.4C408.4,24.1,408.8,24.1,409.1,23.9z"/>
	<path class="st0" d="M424.1,29.3c-1.6-0.8-2.8-1.9-3.6-3.4c-0.8-1.5-1.2-3.3-1.2-5.4v-5.3c0-2.1,0.4-3.9,1.2-5.4s2-2.6,3.6-3.4
		c1.6-0.8,3.6-1.2,6-1.2c2.4,0,4.4,0.4,6,1.2c1.6,0.8,2.8,1.9,3.6,3.4s1.2,3.3,1.2,5.4v5.3c0,2.1-0.4,3.9-1.2,5.4
		c-0.8,1.5-2,2.6-3.6,3.4c-1.6,0.8-3.6,1.2-6,1.2C427.7,30.5,425.7,30.1,424.1,29.3z M432.6,23.3c0.5-0.6,0.8-1.5,0.8-2.8v-5.3
		c0-1.3-0.3-2.2-0.8-2.8c-0.5-0.6-1.4-0.9-2.5-0.9c-1.1,0-1.9,0.3-2.5,0.9c-0.5,0.6-0.8,1.5-0.8,2.8v5.3c0,1.3,0.3,2.2,0.8,2.8
		c0.5,0.6,1.4,0.9,2.5,0.9C431.2,24.2,432,23.9,432.6,23.3z"/>
	<path class="st0" d="M458.2,11.9h-4.7l-0.1,10.3c0,2-0.3,3.6-0.8,4.8c-0.5,1.1-1.3,2-2.4,2.5c-1.1,0.5-2.5,0.7-4.3,0.7
		c-1,0-2,0-3-0.1v-6.3c0.3,0,0.7,0.1,1,0.1c0.5,0,0.8-0.1,1.1-0.2c0.3-0.1,0.5-0.4,0.7-0.7c0.2-0.3,0.3-0.8,0.3-1.5l0.2-15.8h19.2
		v24.4h-7.3V11.9z"/>
	<path class="st0" d="M470.9,27.9c-1.8-1.7-2.7-4.1-2.7-7.4v-5.4c0-3.2,0.9-5.7,2.7-7.4s4.5-2.5,8.1-2.5c2.5,0,4.5,0.4,6.1,1.1
		c1.6,0.7,2.8,1.7,3.5,3c0.7,1.3,1.1,2.7,1.1,4.3c0,0.4,0,0.8-0.1,1.2c0,0.4-0.1,0.7-0.1,1l-7.4,0.3c0.1-0.6,0.2-1.2,0.2-1.9
		c0-0.6-0.1-1.2-0.3-1.5s-0.6-0.7-1-0.9c-0.5-0.2-1.1-0.3-1.8-0.3c-1.1,0-2,0.3-2.5,0.8c-0.5,0.5-0.8,1.4-0.8,2.6v5.6
		c0,0.9,0.1,1.6,0.4,2.1c0.2,0.5,0.6,0.9,1.1,1.2c0.5,0.3,1.1,0.4,1.8,0.4c1.1,0,1.8-0.2,2.4-0.7c0.5-0.5,0.8-1.3,0.8-2.3v-1.4h7.5
		v1.5c0,3-0.9,5.3-2.7,6.9c-1.8,1.6-4.5,2.4-8,2.4C475.4,30.5,472.7,29.6,470.9,27.9z"/>
	<path class="st0" d="M492.3,5.7h7.3V14h4.8c1.8,0,3.3,0.2,4.4,0.7c1.2,0.5,2,1.3,2.6,2.4c0.6,1.1,0.9,2.6,0.9,4.5v0.9
		c0,1.8-0.3,3.3-0.9,4.4c-0.6,1.1-1.5,1.9-2.6,2.4c-1.2,0.5-2.6,0.7-4.4,0.7h-12.1V5.7z M504.1,23.6c0.3-0.1,0.6-0.3,0.7-0.6
		c0.1-0.3,0.2-0.6,0.2-1.1v-0.7c0-0.7-0.2-1.1-0.5-1.4c-0.3-0.3-0.9-0.4-1.6-0.4h-3.3v4.5h3.2C503.4,23.8,503.8,23.7,504.1,23.6z
		 M514.9,5.7h7.3v24.4h-7.3V5.7z"/>
	<path class="st0" d="M525.3,5.7h7.3v7.7c0,0.7,0,1.3-0.1,1.8c-0.1,0.5-0.2,1.1-0.4,1.7l0.5,0.2c0.5-0.9,1.2-1.6,2-2.1
		c0.8-0.5,1.8-0.7,3-0.7c0.5,0,1,0,1.5,0.1V5.7h7.3v24.4h-7.3V23c0-0.7-0.1-1.2-0.3-1.6c-0.2-0.4-0.6-0.8-1-1
		c-0.5-0.2-1.1-0.3-1.9-0.3c-0.8,0-1.4,0.1-1.9,0.3c-0.5,0.2-0.8,0.5-1,1c-0.2,0.4-0.3,1-0.3,1.6v7.1h-7.3V5.7z"/>
	<path class="st0" d="M548.9,5.7h7.4l-1,16.1h-5.5L548.9,5.7z M549,23.7h7.3v6.4H549V23.7z"/>
	<path class="st0" d="M295.2,20.8h16.6v5.6h-16.6V20.8z"/>
</g>
</svg>
