<?xml version="1.0" encoding="utf-8"?>
<!-- Generator: Adobe Illustrator 25.2.3, SVG Export Plug-In . SVG Version: 6.00 Build 0)  -->
<svg version="1.1" id="Layer_1" xmlns="http://www.w3.org/2000/svg" xmlns:xlink="http://www.w3.org/1999/xlink" x="0px" y="0px"
	 viewBox="0 0 130 150" style="enable-background:new 0 0 130 150;" xml:space="preserve">
<style type="text/css">
	.st0{fill-rule:evenodd;clip-rule:evenodd;fill:#000661;}
</style>
<path class="st0" d="M14.3,104.1c9-15.7,21.2-19.7,43.3-7.5C47.1,74.6,52.8,63.3,65,51.6c12.2,11.7,17.9,23,7.4,44.9
	c22.1-12.2,34.3-8.2,43.3,7.5c-26.8,3.1-39.5,15.4-41,45.9c31.2-3.3,54.5-21.3,54.7-54C129.5,58.1,93.3,19,65,0
	C36.7,19,0.5,58.1,0.6,96c0.1,32.6,23.4,50.6,54.7,54C53.8,119.4,41.1,107.2,14.3,104.1z"/>
</svg>
