<?xml version="1.0" encoding="utf-8"?>
<!-- Generator: Adobe Illustrator 25.2.3, SVG Export Plug-In . SVG Version: 6.00 Build 0)  -->
<svg version="1.1" id="Layer_1" xmlns="http://www.w3.org/2000/svg" xmlns:xlink="http://www.w3.org/1999/xlink" x="0px" y="0px"
	 viewBox="0 0 130 150" style="enable-background:new 0 0 130 150;" xml:space="preserve">
<style type="text/css">
	.st0{fill-rule:evenodd;clip-rule:evenodd;fill:#000661;}
</style>
<path class="st0" d="M115.7,45.9c-9,15.7-21.2,19.7-43.3,7.5c10.5,21.9,4.8,33.2-7.4,44.9c-12.2-11.7-17.9-23-7.4-44.9
	c-22.1,12.2-34.3,8.2-43.3-7.5c26.8-3.1,39.5-15.4,41-45.9C24.1,3.3,0.8,21.3,0.6,54C0.5,91.9,36.7,131,65,150
	c28.3-19,64.5-58.1,64.4-96c-0.1-32.6-23.4-50.6-54.7-54C76.2,30.6,88.9,42.8,115.7,45.9z"/>
</svg>
