<?xml version="1.0" encoding="utf-8"?>
<!-- Generator: Adobe Illustrator 25.2.3, SVG Export Plug-In . SVG Version: 6.00 Build 0)  -->
<svg version="1.1" id="Layer_1" xmlns="http://www.w3.org/2000/svg" xmlns:xlink="http://www.w3.org/1999/xlink" x="0px" y="0px"
	 viewBox="0 0 279 82" style="enable-background:new 0 0 279 82;" xml:space="preserve">
<style type="text/css">
	.st0{fill:#000F5F;}
</style>
<g>
	<path class="st0" d="M3.9,31C1.5,28.8,0.2,25.4,0.2,21v-7.3c0-4.4,1.2-7.8,3.7-10.1c2.5-2.3,6.1-3.5,11-3.5c3.3,0,6.1,0.5,8.3,1.5
		s3.8,2.4,4.7,4.1c1,1.7,1.5,3.7,1.5,5.8c0,0.5,0,1-0.1,1.6c0,0.6-0.1,1-0.2,1.3l-10.1,0.4c0.2-0.9,0.2-1.7,0.2-2.5
		c0-0.9-0.2-1.6-0.5-2.1c-0.3-0.5-0.8-0.9-1.4-1.2C16.9,8.8,16,8.7,15,8.7c-1.5,0-2.7,0.4-3.4,1.1c-0.7,0.7-1.1,1.9-1.1,3.5v7.6
		c0,1.2,0.2,2.1,0.5,2.9c0.3,0.7,0.8,1.3,1.4,1.6c0.6,0.3,1.5,0.5,2.5,0.5c1.4,0,2.5-0.3,3.2-1c0.7-0.7,1.1-1.7,1.1-3.1v-1.9h10.3v2
		c0,4.1-1.2,7.2-3.7,9.3c-2.4,2.1-6.1,3.2-10.9,3.2S6.3,33.3,3.9,31z"/>
	<path class="st0" d="M42.5,0.7h16.3C59,2.9,59.3,5,59.5,7.1c0.3,2,0.6,4.5,1,7.5c0.5,3.4,0.9,6.5,1.2,9.3h0.9
		c0.4-3.2,0.8-6.2,1.2-9.1c0.3-2.3,0.6-4.7,0.9-7.1c0.3-2.4,0.6-4.7,0.8-7h16.3v33.2H72v-5.9c0-5.8,0.2-11.9,0.5-18.3l-0.8,0
		c-0.3,1.9-0.6,3.9-0.9,6s-0.7,4.1-1,5.9c-0.3,2.1-0.7,4.2-1,6.3c-0.3,2.1-0.6,4.1-0.9,5.9H56.4c-0.2-1.7-0.5-3.6-0.9-5.8
		c-0.3-2.1-0.7-4.3-1-6.3c-0.7-4.1-1.3-8.1-1.9-12.1l-0.9,0c0.3,6.3,0.5,12.4,0.5,18.3v5.9h-9.7V0.7z"/>
	<path class="st0" d="M86,0.7h23.9v8.5H96v4.6h13.1v6.5H96v5h14v8.5H86V0.7z"/>
	<path class="st0" d="M116.6,31c-2.4-2.3-3.7-5.6-3.7-10.1v-7.3c0-4.4,1.2-7.8,3.7-10.1c2.5-2.3,6.1-3.5,11-3.5
		c3.3,0,6.1,0.5,8.3,1.5s3.8,2.4,4.7,4.1c1,1.7,1.5,3.7,1.5,5.8c0,0.5,0,1-0.1,1.6c0,0.6-0.1,1-0.2,1.3l-10.1,0.4
		c0.2-0.9,0.2-1.7,0.2-2.5c0-0.9-0.2-1.6-0.5-2.1c-0.3-0.5-0.8-0.9-1.4-1.2c-0.6-0.2-1.5-0.4-2.5-0.4c-1.5,0-2.7,0.4-3.4,1.1
		c-0.7,0.7-1.1,1.9-1.1,3.5v7.6c0,1.2,0.2,2.1,0.5,2.9c0.3,0.7,0.8,1.3,1.4,1.6c0.6,0.3,1.5,0.5,2.5,0.5c1.4,0,2.5-0.3,3.2-1
		c0.7-0.7,1.1-1.7,1.1-3.1v-1.9h10.3v2c0,4.1-1.2,7.2-3.7,9.3c-2.4,2.1-6.1,3.2-10.9,3.2S119,33.3,116.6,31z"/>
	<path class="st0" d="M162.5,22.6h-2.9l-4.2,11.3h-11.1l6.4-14.2v-0.9c-1-0.2-2-0.7-2.8-1.4c-0.8-0.7-1.5-1.7-2-2.9
		s-0.7-2.6-0.7-4.3v-0.2c0-1.9,0.3-3.6,0.9-5s1.6-2.5,2.9-3.2s2.9-1.1,4.8-1.1h18.7v33.2h-10V22.6z M155.1,14.5
		c0.4,0.5,1.1,0.7,2,0.7h5.3V8.8h-5.3c-0.9,0-1.6,0.3-2,0.8s-0.6,1.3-0.6,2.4v0.1C154.5,13.2,154.7,14,155.1,14.5z"/>
	<path class="st0" d="M198.1,33.9h-21.4V0.7h10v24.7h8.6V0.7h10v24.7h3.4V39h-10.5V33.9z"/>
	<path class="st0" d="M212,0.7h23.9v8.5h-14v4.6h13.1v6.5H222v5h14v8.5H212V0.7z"/>
	<path class="st0" d="M239.5,0.7h16.3c0.2,2.2,0.4,4.3,0.7,6.3s0.6,4.5,1,7.5c0.5,3.4,0.9,6.5,1.2,9.3h0.9c0.4-3.2,0.8-6.2,1.2-9.1
		c0.3-2.3,0.6-4.7,0.9-7.1s0.6-4.7,0.8-7h16.3v33.2H269v-5.9c0-5.8,0.2-11.9,0.5-18.3l-0.8,0c-0.3,1.9-0.6,3.9-0.9,6
		c-0.3,2.1-0.7,4.1-1,5.9c-0.3,2.1-0.7,4.2-1,6.3c-0.3,2.1-0.6,4.1-0.9,5.9h-11.4c-0.2-1.7-0.5-3.6-0.9-5.8c-0.3-2.1-0.7-4.3-1-6.3
		c-0.7-4.1-1.3-8.1-1.9-12.1l-0.9,0c0.3,6.3,0.5,12.4,0.5,18.3v5.9h-9.7V0.7z"/>
	<path class="st0" d="M12.8,43.6h17c2.3,0,4.1,0.4,5.6,1.1c1.5,0.7,2.6,1.8,3.3,3.3c0.7,1.5,1.1,3.5,1.1,5.9v3.6
		c0,2.4-0.3,4.3-1,5.8c-0.7,1.5-1.7,2.6-3.1,3.4c-1.4,0.7-3.1,1.1-5.2,1.1h-0.1c-1.4,0-2.6-0.1-3.5-0.4s-1.7-0.7-2.2-1.2
		c-0.5-0.5-1-1.1-1.4-1.9l-0.7,0.2c0.2,1,0.4,1.8,0.4,2.4s0.1,1.6,0.1,2.9v7h-10V43.6z M23.1,58.6c0.2,0.4,0.6,0.8,1.1,1
		c0.5,0.2,1.2,0.3,2.1,0.3c1,0,1.8-0.1,2.4-0.4s0.9-0.7,1.1-1.2c0.2-0.6,0.3-1.3,0.3-2.3v-0.3c0-0.9-0.1-1.7-0.3-2.2
		s-0.6-0.9-1.2-1.2c-0.6-0.3-1.4-0.4-2.4-0.4h-3.5v5C22.8,57.6,22.9,58.2,23.1,58.6z"/>
	<path class="st0" d="M48.5,43.6h13.7l10,33.2H61.7l-0.6-2.6c-0.2-1-0.6-1.7-1-2.3c-0.5-0.6-1.1-1-1.8-1.3c-0.8-0.3-1.7-0.4-2.9-0.4
		s-2.1,0.1-2.9,0.4c-0.8,0.3-1.4,0.7-1.8,1.3c-0.5,0.6-0.8,1.4-1,2.3L49,76.8H38.5L48.5,43.6z M54.3,63.5c0.7-0.4,1.5-0.6,2.4-0.6
		c0.4,0,0.8,0,1.3,0.1c-0.6-2.3-1.3-5.7-2.2-10.1H55c-0.5,2.4-0.9,4.4-1.3,6c-0.4,1.6-0.7,2.8-1,3.7c-0.3,1-0.7,1.9-1.1,2.8l0.7,0.3
		C53,64.6,53.7,63.9,54.3,63.5z"/>
	<path class="st0" d="M75,43.6h16.3c0.2,2.2,0.4,4.3,0.7,6.3c0.3,2,0.6,4.5,1,7.5c0.5,3.4,0.9,6.5,1.2,9.3h0.9
		c0.4-3.2,0.8-6.2,1.2-9.1c0.3-2.3,0.6-4.7,0.9-7.1c0.3-2.4,0.6-4.7,0.8-7h16.3v33.2h-9.7v-5.9c0-5.8,0.2-11.9,0.5-18.3l-0.8,0
		c-0.3,1.9-0.6,3.9-0.9,6s-0.7,4.1-1,5.9c-0.3,2.1-0.7,4.2-1,6.3c-0.3,2.1-0.6,4.1-0.9,5.9H88.9c-0.2-1.7-0.5-3.6-0.9-5.8
		c-0.3-2.1-0.7-4.3-1-6.3c-0.7-4.1-1.3-8.1-1.9-12.1l-0.9,0c0.3,6.3,0.5,12.4,0.5,18.3v5.9H75V43.6z"/>
	<path class="st0" d="M127,43.6h13.7l10,33.2h-10.5l-0.6-2.6c-0.2-1-0.6-1.7-1-2.3c-0.5-0.6-1.1-1-1.8-1.3c-0.8-0.3-1.7-0.4-2.9-0.4
		s-2.1,0.1-2.9,0.4c-0.8,0.3-1.4,0.7-1.8,1.3c-0.5,0.6-0.8,1.4-1,2.3l-0.6,2.6H117L127,43.6z M132.9,63.5c0.7-0.4,1.5-0.6,2.4-0.6
		c0.4,0,0.8,0,1.3,0.1c-0.6-2.3-1.3-5.7-2.2-10.1h-0.9c-0.5,2.4-0.9,4.4-1.3,6c-0.4,1.6-0.7,2.8-1,3.7c-0.3,1-0.7,1.9-1.1,2.8
		l0.7,0.3C131.5,64.6,132.2,63.9,132.9,63.5z"/>
	<path class="st0" d="M152.7,68.3h2.2c0.5,0,0.9-0.1,1.2-0.3c0.3-0.2,0.5-0.5,0.6-0.9c0.1-0.4,0.2-1,0.2-1.8l0.3-21.7h26.5v24.7h3.4
		v13.6h-11.1v-5h-12.2v5h-11.1V68.3z M173.6,68.3V52.1h-6.8l-0.1,11.1c0,0.9-0.1,1.7-0.3,2.2s-0.4,1-0.8,1.3
		c-0.4,0.3-0.9,0.5-1.5,0.7v0.9H173.6z"/>
	<path class="st0" d="M198.8,43.6h13.7l10,33.2h-10.5l-0.6-2.6c-0.2-1-0.6-1.7-1-2.3c-0.5-0.6-1.1-1-1.8-1.3
		c-0.8-0.3-1.7-0.4-2.9-0.4s-2.1,0.1-2.9,0.4c-0.8,0.3-1.4,0.7-1.8,1.3c-0.5,0.6-0.8,1.4-1,2.3l-0.6,2.6h-10.5L198.8,43.6z
		 M204.7,63.5c0.7-0.4,1.5-0.6,2.4-0.6c0.4,0,0.8,0,1.3,0.1c-0.6-2.3-1.3-5.7-2.2-10.1h-0.9c-0.5,2.4-0.9,4.4-1.3,6
		c-0.4,1.6-0.7,2.8-1,3.7c-0.3,1-0.7,1.9-1.1,2.8l0.7,0.3C203.4,64.6,204,63.9,204.7,63.5z"/>
	<path class="st0" d="M225.4,43.6h10V54c0,0.9-0.1,1.7-0.2,2.4c-0.1,0.7-0.3,1.5-0.6,2.3l0.7,0.3c0.7-1.3,1.6-2.2,2.7-2.9
		c1.1-0.7,2.5-1,4.1-1c0.7,0,1.4,0.1,2.1,0.2V43.6h10v33.2h-10v-9.7c0-0.9-0.1-1.6-0.4-2.2c-0.3-0.6-0.8-1-1.4-1.3
		c-0.6-0.3-1.5-0.4-2.6-0.4c-1.1,0-1.9,0.1-2.6,0.4c-0.7,0.3-1.1,0.7-1.4,1.3c-0.3,0.6-0.4,1.3-0.4,2.2v9.7h-10V43.6z"/>
	<path class="st0" d="M257.6,43.6h10.1l-1.3,22h-7.5L257.6,43.6z M257.7,68.1h9.9v8.7h-9.9V68.1z"/>
</g>
</svg>
